/* XPM */
static const char *icon_D[] = {
/* columns rows colors chars-per-pixel */
"15 15 20 1",
"& c Black",
"# c #26323F",
"o c #0D1216",
", c #86B2DF",
"+ c #89B6E4",
"= c #090C0F",
"$ c #394C5F",
"- c #698CAF",
"@ c #99CCFF",
"> c #1C262F",
"1 c #0D1115",
"< c #4C667F",
"; c #7CA6CF",
"X c #1D2731",
": c #13191F",
"  c #0E1217",
"% c #7399BF",
". c #1C252E",
"O c #7AA2CB",
"* c #5F7F9F",
/* pixels */
" .XXXXXXXXXXXXo",
".O++++++++++++.",
"X+@@@@@@@@@@@@X",
"X+@@####$%@@@@X",
"X+@@&%%%*=-@@@X",
"X+@@&@@@@;:@@@X",
"X+@@&@@@@@>;@@X",
"X+@@&@@@@@#%@@X",
"X+@@&@@@@@>%@@X",
"X+@@&@@@@,=@@@X",
"X+@@&@@@;><@@@X",
"X+@@&&&&:<@@@@X",
"X+@@@@@@@@@@@@X",
"X+@@@@@@@@@@@@X",
"o.XXXXXXXXXXXX1"
};
