/* XPM */
static char *icon_next[] = {
/* columns rows colors chars-per-pixel */
"15 15 3 1",
". c Black",
"  c None",
"X c #99FFCC",
/* pixels */
"               ",
"               ",
"               ",
"         .     ",
"         ..    ",
" .........X.   ",
" .XXXXXXXXXX.  ",
" .XXXXXXXXXXX. ",
" .XXXXXXXXXX.  ",
" .........X.   ",
"         ..    ",
"         .     ",
"               ",
"               ",
"               "
};
