/* XPM */
static char *icon_reload[] = {
/* columns rows colors chars-per-pixel */
"15 15 3 1",
". c Black",
"  c None",
"X c #020202",
/* pixels */
"               ",
"     .....     ",
"   ......... . ",
"   ...   ... . ",
"  ...     .... ",
"  ..       ... ",
"         ..... ",
"               ",
" ....X         ",
" ...       ..  ",
" ....     ...  ",
" . ...   ...   ",
" . .........   ",
"     .....     ",
"               "
};
