/* XPM */
static char *icon_prev[] = {
/* columns rows colors chars-per-pixel */
"15 15 3 1",
"X c Black",
"  c None",
". c #99FFCC",
/* pixels */
"               ",
"               ",
"               ",
"    .X         ",
"   .XX         ",
"  .X.XXXXXXXXX ",
" .X..........X ",
" X...........X ",
"  X..........X ",
"   X.XXXXXXXXX ",
"    XX         ",
"     X         ",
"               ",
"               ",
"               "
};
