/* XPM */
static const char * icon_3Dsphere[] = {
"20 22 5 1",
" 	c None",
".	c #FFFFFF",
"+	c #CCFFFF",
"@	c #009933",
"#	c #000000",
"                    ",
"       ######       ",
"     ##@@@@@@##     ",
"   ##.@...@...@##   ",
"  #@@..@@@@@@@.@@#  ",
"  #.@.@@..@@@@@.@#  ",
" #@.@@.@.@.@.@.@.@# ",
" #@@@..@@.@..@..@.# ",
"#@..@.@..@@..@..@@@#",
"#@..@@...@@.@.@.@@.#",
"#@..@@..@..@@@@@.@.#",
"#@.@@.@@...@..@..@.#",
"#@@@...@...@..@..@.#",
"#@@....@@@@@..@..@@#",
" #@@..@...@@@@@@@@# ",
" #..@@@...@...@..@# ",
"  #..@@...@...@..#  ",
"  #..@.@@@@...@@@#  ",
"   ##@...@@@@@@##   ",
"     ##..@...##     ",
"       ######       ",
"                    "};
